PathFileType	3	(X/Y/Z)	D:\minhoCalibration\240510\subject3_KPNP\preferred\preferred05.trc
DataRate	CameraRate	NumFrames	NumMarkers	Units	OrigDataRate	OrigDataStartFrame	OrigNumFrames
200.0	200.0	33	10	mm	200.0	65	126	
Frame#	Time	Left_Ankle_Outer1			Left_Ankle_Inner1			Left_Knee_Outer1			Left_Knee_Inner1			Left_Wrist1			Right_Wrist1			Right_Knee_Inner1			Right_Knee_Outer1			Right_Ankle_Inner1			Right_Ankle_Outer1			
		X1	Y1	Z1	X2	Y2	Z2	X3	Y3	Z3	X4	Y4	Z4	X5	Y5	Z5	X6	Y6	Z6	X7	Y7	Z7	X8	Y8	Z8	X9	Y9	Z9	X10	Y10	Z10	
65	0.315	-343.60812	77.067894	-554.15216	-398.65311	88.014359	-545.55103	-227.7583	484.76068	-413.19672	-335.56271	492.99539	-400.97992	-195.29668	851.22668	-572.39056	-531.13037	866.93805	-701.48425	-549.73492	417.67014	-764.34375	-618.24896	494.70822	-824.09027	-386.9223	165.61768	-1050.5282	-443.34357	209.48218	-1118.76
66	0.32	-342.621	77.431023	-554.00647	-397.77942	88.746811	-545.52942	-225.87746	484.79636	-411.93628	-333.47794	492.65515	-400.00305	-192.49393	854.29803	-569.17554	-531.03711	869.3844	-692.42572	-553.29523	419.23282	-752.22137	-622.97552	497.03098	-810.91235	-393.7164	173.52742	-1046.4192	-452.34692	217.94669	-1113.3623
67	0.325	-341.53937	77.888504	-553.75549	-396.55774	89.344337	-545.46033	-223.93259	484.91953	-410.9335	-331.25555	492.51691	-399.05209	-189.64264	857.41284	-566.12292	-530.67194	871.82916	-683.4397	-556.56805	420.96832	-739.32776	-627.56195	499.46701	-797.14691	-400.58835	182.04221	-1041.7415	-462.18079	226.50031	-1106.3628
68	0.33	-340.43887	78.180893	-553.6983	-395.38837	90.066269	-545.44196	-221.72351	485.18039	-410.29932	-328.28726	492.45636	-398.15985	-186.5	860.66534	-563.30176	-530.26813	874.51117	-673.98212	-559.73523	422.77798	-725.79248	-631.96887	502.02692	-782.7597	-407.5524	191.21423	-1036.4971	-472.12177	235.12108	-1099.0505
69	0.335	-338.96716	78.82106	-553.56335	-394.05817	90.772339	-545.45795	-219.35434	485.54614	-410.10602	-325.08978	492.81372	-397.55353	-183.25594	863.9657	-560.66138	-529.61694	877.3761	-664.65497	-562.48889	424.71759	-711.26373	-636.1377	504.79568	-767.66339	-414.42966	200.93433	-1030.6188	-482.43848	243.83562	-1090.5647
70	0.34	-337.65729	79.379875	-553.4978	-392.58401	91.535652	-545.40863	-216.90015	486.01425	-410.25989	-321.87817	492.89746	-396.75052	-179.98608	867.26788	-558.22241	-528.89307	880.39783	-655.00848	-565.26599	426.98636	-696.89984	-640.10065	507.57581	-751.83191	-421.35242	211.19263	-1023.7283	-492.14709	253.23111	-1082.2146
71	0.345	-336.03708	80.219894	-553.42554	-391.21957	92.427666	-545.60089	-214.30011	486.51123	-410.77954	-318.60513	493.22723	-396.28867	-176.41527	870.85651	-556.18658	-528.04669	883.62463	-645.1156	-567.43707	429.56052	-681.47284	-643.83484	510.42862	-735.24982	-428.26257	222.15578	-1016.084	-502.7439	261.60522	-1071.6782
72	0.35	-334.65604	80.82737	-553.4519	-389.63443	93.253654	-545.51941	-211.44511	487.10507	-411.75983	-315.25464	493.95651	-396.05469	-172.48495	874.4978	-554.44635	-526.64191	887.48572	-634.92529	-568.8877	432.5455	-664.8396	-647.00793	513.0661	-717.2937	-434.69836	234.54068	-1007.9514	-512.78259	271.31924	-1060.6614
73	0.355	-333.19724	81.720009	-553.47046	-388.25397	94.283524	-545.52161	-208.562	487.72797	-413.09351	-311.73483	494.50769	-395.98642	-169.13376	878.04608	-552.96338	-525.48108	891.03802	-624.53345	-569.81799	435.31622	-648.77014	-649.94464	515.89856	-698.01349	-440.30167	247.85695	-998.73462	-521.93439	281.5827	-1049.63
74	0.36	-331.79297	82.654732	-553.53088	-386.98132	95.361961	-545.42517	-205.47569	488.46619	-414.9006	-308.13632	495.08017	-396.18387	-165.48337	881.71106	-552.04065	-524.52863	894.98071	-613.40204	-570.23535	438.67792	-632.36176	-652.86462	519.35138	-679.00055	-445.88306	261.59424	-988.40717	-530.75977	292.64258	-1036.6901
75	0.365	-330.54865	83.617996	-553.42664	-385.7504	96.593163	-545.19769	-202.58479	489.21561	-416.80402	-304.74026	496.01633	-396.41217	-161.60339	885.32318	-551.64764	-522.98663	899.46362	-602.14319	-570.01172	442.2601	-615.49542	-655.47241	523.41937	-659.5863	-451.74051	275.245	-976.99786	-537.85223	305.84445	-1023.7556
76	0.37	-329.22202	84.544746	-553.41199	-384.66125	97.947273	-545.01947	-199.53001	490.08249	-419.15802	-300.7933	496.85352	-397.203	-158.26172	888.73352	-551.38312	-520.72205	903.89514	-591.30994	-569.19434	446.12469	-598.27136	-657.69287	527.57312	-639.46039	-457.44965	288.89493	-964.34399	-543.26495	320.08224	-1010.3369
77	0.375	-328.52853	85.700287	-553.23846	-383.54324	99.327469	-544.61237	-196.76404	491.05069	-421.60223	-297.34769	498.05563	-397.71136	-154.79134	892.06622	-551.84833	-518.98615	909.07904	-579.50775	-567.8847	450.05661	-580.60718	-660.11823	532.56555	-618.79169	-463.17725	302.75183	-950.73865	-549.49756	334.82449	-994.77539
78	0.38	-327.41559	87.179482	-553.0885	-382.64758	100.91417	-544.08698	-193.86768	492.16742	-424.35892	-293.85529	499.12662	-398.46014	-151.11188	895.45569	-552.54907	-516.02649	914.46857	-568.21112	-566.83923	454.91409	-562.46771	-662.01746	537.76947	-596.17743	-468.66171	316.83966	-936.31671	-555.87708	349.24103	-977.75641
79	0.385	-326.47147	88.959656	-552.54272	-381.79633	102.58434	-543.62622	-191.55566	493.34946	-427.2525	-290.42926	500.69272	-399.25934	-147.27551	898.83032	-553.8053	-511.56717	920.28918	-556.6123	-565.16235	460.21106	-544.3501	-663.14557	543.74847	-574.10297	-474.33682	330.89883	-921.07141	-561.55206	365.94473	-960.48627
80	0.39	-325.45465	90.670425	-552.24408	-380.92596	104.47134	-542.90228	-188.84773	494.76031	-430.09866	-286.79617	502.18643	-400.13458	-142.98401	902.11035	-555.76569	-508.24673	926.30957	-545.36047	-563.37811	466.13107	-525.86304	-664.23743	550.42523	-549.39307	-480.6282	345.34006	-905.49054	-567.52216	382.08115	-943.08685
81	0.395	-324.87802	92.519783	-551.99445	-380.13461	106.51526	-541.96552	-186.21303	496.37201	-432.84756	-283.64917	503.90332	-400.4584	-139.24211	905.35608	-557.81042	-503.9187	932.66913	-534.27478	-561.45068	472.65952	-506.84433	-664.40961	557.90222	-525.47412	-486.86826	359.79559	-889.18878	-573.60461	398.97226	-924.51208
82	0.4	-324.34592	94.52282	-551.51575	-379.50201	108.86841	-540.99799	-184.09923	498.00555	-435.56021	-280.20737	505.91541	-401.19867	-135.4622	908.45831	-560.62158	-499.60223	939.08435	-523.17737	-559.5824	479.90674	-487.12317	-663.94568	566.30103	-501.29062	-493.40637	374.3266	-872.05127	-580.39514	415.62604	-904.60107
83	0.405	-325.21344	95.838287	-550.19055	-379.00339	111.19776	-539.7876	-181.85268	499.90854	-438.17966	-276.86728	507.95071	-401.73572	-132.20212	911.12531	-563.91998	-494.35052	946.39569	-512.18066	-557.56805	487.98373	-466.61639	-662.4408	575.58148	-476.80219	-500.48495	389.08548	-854.24872	-587.66162	432.79248	-883.43323
84	0.41	-323.759	98.921913	-549.99628	-378.57288	113.86062	-538.37958	-179.59892	502.11572	-440.7995	-273.78931	510.0441	-402.32404	-129.09149	913.84863	-567.84412	-488.00397	953.2738	-503.11853	-555.37262	496.93924	-445.33716	-660.56665	585.93976	-452.29245	-507.89899	404.10974	-835.70441	-595.34375	449.7536	-861.85162
85	0.415	-324.92798	100.59801	-548.4859	-378.39902	116.53017	-536.87933	-177.54091	504.38522	-443.30023	-270.22473	512.75635	-402.67105	-125.97334	916.52765	-572.42322	-482.03616	960.82953	-493.76578	-552.95007	506.8345	-423.31683	-657.7854	597.22272	-427.79166	-513.66968	419.59848	-817.36731	-603.05627	466.78555	-839.9223
86	0.42	-324.84705	103.20705	-547.49432	-378.22794	119.21659	-534.90454	-175.54134	506.90723	-445.6033	-267.17279	515.59271	-402.86447	-123.10874	919.17548	-577.5011	-475.61108	968.47571	-485.31949	-549.9328	517.60352	-400.11627	-654.10846	609.30206	-403.39099	-523.0578	434.90662	-796.96777	-611.64343	484.09921	-816.16302
87	0.425	-324.5253	106.06929	-546.65369	-378.13589	121.95995	-532.92755	-173.47783	509.52267	-447.95715	-263.83276	518.47461	-403.28214	-120.26405	921.67963	-583.18353	-469.12488	976.63843	-476.73114	-546.55432	529.44183	-376.83566	-649.87512	622.71838	-379.14151	-531.76166	450.32288	-776.17535	-620.09528	501.40649	-792.27759
88	0.43	-325.11929	108.47519	-545.23083	-378.60968	124.80498	-530.26746	-171.42015	512.09949	-450.27304	-260.6557	521.59955	-403.44427	-118.1157	924.05627	-588.98096	-462.48257	984.10413	-470.13123	-542.50696	542.41522	-353.76016	-644.69531	636.729	-354.88446	-540.45807	466.01151	-754.77264	-629.22186	519.11456	-767.19159
89	0.435	-325.50092	111.09222	-543.99139	-378.28851	127.54343	-528.69165	-169.15735	514.88342	-452.60104	-257.483	524.69977	-403.55933	-116.16714	926.32208	-595.23401	-455.54523	992.07391	-463.72778	-537.75659	555.96448	-330.55063	-638.89935	652.06433	-330.81747	-549.38208	481.74905	-732.69739	-637.66406	535.05847	-741.41998
90	0.44	-325.99298	113.59196	-542.72443	-378.47516	130.42249	-526.15771	-167.09775	517.37683	-454.95837	-254.25407	528.01764	-403.297	-114.70052	928.36633	-601.63477	-448.87244	1000.0724	-457.72433	-531.99548	570.7887	-306.68228	-631.8631	668.10394	-307.02573	-558.6698	497.44073	-709.73499	-646.72382	551.85999	-714.33813
91	0.445	-325.57645	116.60317	-541.88788	-378.74222	133.18182	-523.71625	-165.09695	519.83527	-457.32675	-250.73033	531.21271	-403.68542	-112.98558	930.40399	-608.42505	-442.31656	1008.2396	-451.61081	-525.43811	586.27124	-283.43411	-623.96588	685.11749	-283.26996	-567.92578	513.10242	-686.15594	-655.63141	567.47797	-687.27966
92	0.45	-326.42349	118.76645	-540.4306	-378.77438	135.95294	-521.27319	-163.03622	522.18903	-459.66156	-247.14113	534.61133	-403.34445	-112.39854	932.00641	-615.09674	-435.51233	1015.7938	-447.94406	-517.86469	602.9295	-261.37933	-614.85461	703.12622	-259.90189	-578.27307	528.06409	-661.14154	-664.21509	583.94031	-659.83728
93	0.455	-327.44855	120.60875	-538.72906	-379.05746	138.51619	-518.6275	-161.08546	524.2641	-462.13568	-243.7746	537.10822	-403.61172	-112.20107	933.35889	-621.7265	-429.15097	1023.8887	-443.76855	-509.20773	620.14703	-239.18045	-604.55133	721.89618	-236.8526	-587.96167	542.86316	-636.04279	-673.30023	600.41101	-631.12469
94	0.46	-327.44797	122.84332	-537.86761	-379.17365	140.91287	-516.07202	-159.32385	526.02997	-464.54376	-240.17172	539.80945	-403.22263	-112.22879	934.60834	-628.5354	-423.18604	1031.2385	-440.16327	-499.55939	637.83502	-217.25443	-592.83319	741.12244	-215.01889	-598.5899	557.01428	-609.0011	-682.11255	617.12311	-599.97345
95	0.465	-328.24396	124.5416	-536.37628	-379.21701	143.15268	-513.51288	-157.68161	527.61206	-467.06323	-236.45399	542.17444	-403.34338	-112.84797	935.58362	-635.15912	-416.59396	1039.2649	-437.28799	-489.12189	656.59814	-196.85977	-580.21753	762.10547	-192.4808	-608.21179	571.17767	-582.26965	-690.58008	631.6424	-571.01666
96	0.47	-329.14734	126.15599	-534.42413	-379.16617	145.16193	-511.01553	-156.11121	529.00012	-469.61084	-232.424	544.05963	-403.48282	-113.93156	936.37415	-641.72601	-410.80814	1046.6218	-434.76221	-477.49704	675.74756	-177.26509	-566.02539	783.20966	-172.05573	-618.12061	584.83673	-554.16302	-698.56403	648.03467	-539.58795
97	0.475	-329.23883	127.96008	-533.39221	-379.26019	146.95889	-508.53659	-154.91711	530.09473	-472.00372	-228.44098	545.41962	-402.29694	-115.31593	937.0412	-648.07434	-404.99774	1053.8728	-432.7879	-465.47501	695.44501	-158.44325	-551.11243	805.53302	-151.86812	-627.91931	598.11969	-525.06287	-705.38745	662.52588	-509.3382
